<?xml version="1.0" standalone="no"?><!DOCTYPE svg PUBLIC "-//W3C//DTD SVG 1.1//EN" "http://www.w3.org/Graphics/SVG/1.1/DTD/svg11.dtd"><svg t="1726671797043" class="icon" viewBox="0 0 1024 1024" version="1.1" xmlns="http://www.w3.org/2000/svg" p-id="2486" xmlns:xlink="http://www.w3.org/1999/xlink" width="200" height="200"><path d="M1014.361498 461.89056a38.4 38.4 0 0 1-54.20544 3.28192L531.320218 85.2992l-0.1408 0.12544a25.55136 25.55136 0 0 0-2.84928-2.71616c-0.40192-0.3328-0.80128-0.67072-1.21856-0.97536-0.2816-0.2048-0.57344-0.38912-0.86016-0.58112-0.41472-0.27904-0.82944-0.55808-1.25696-0.81152-0.33024-0.19456-0.67328-0.36864-1.024-0.54784-0.39424-0.20736-0.78592-0.4224-1.18784-0.60928s-0.78336-0.33536-1.1776-0.49408-0.73472-0.30464-1.10848-0.4352a25.23136 25.23136 0 0 0-1.29536-0.39936c-0.35328-0.10496-0.70656-0.21504-1.06496-0.30208-0.44544-0.11008-0.89344-0.192-1.33888-0.27648-0.36352-0.06912-0.72192-0.14336-1.08544-0.19712-0.43776-0.064-0.87552-0.1024-1.31328-0.14336-0.384-0.03584-0.768-0.0768-1.152-0.09472s-0.82688-0.01536-1.2416-0.01536-0.82432 0-1.23648 0.01536-0.768 0.05888-1.15456 0.09728c-0.43776 0.04096-0.87552 0.07936-1.31072 0.14336-0.36352 0.05376-0.72704 0.128-1.088 0.19712-0.448 0.08448-0.89344 0.1664-1.33632 0.27648-0.3584 0.08704-0.71424 0.19968-1.07008 0.30208-0.43264 0.12544-0.86528 0.256-1.28 0.39936-0.37376 0.13056-0.73984 0.28672-1.10848 0.4352s-0.78848 0.31488-1.1776 0.49408-0.7936 0.39936-1.18784 0.60928c-0.34048 0.1792-0.68096 0.35072-1.024 0.54784-0.42752 0.256-0.83968 0.53248-1.25696 0.81152-0.28672 0.192-0.57856 0.37632-0.86016 0.58112-0.41472 0.30464-0.81664 0.64-1.21856 0.97536a25.52576 25.52576 0 0 0-2.84672 2.71616l-0.1408-0.12544L420.810138 148.992 179.217818 363.04384V921.6a25.6 25.6 0 0 0 25.6 25.6h128a25.6 25.6 0 0 0 25.6-25.6v-204.8a102.4 102.4 0 0 1 102.4-102.4h102.4a102.4 102.4 0 0 1 102.4 102.4v204.8a25.6 25.6 0 0 0 25.6 25.6h128a25.6 25.6 0 0 0 25.6-25.6V576a38.4 38.4 0 0 1 76.8 0v345.6a102.4 102.4 0 0 1-102.4 102.4h-128a102.4 102.4 0 0 1-102.4-102.4v-204.8a25.6 25.6 0 0 0-25.6-25.6h-102.4a25.6 25.6 0 0 0-25.6 25.6v204.8a102.4 102.4 0 0 1-102.4 102.4H204.817818a102.4 102.4 0 0 1-102.4-102.4V431.08352L63.905178 465.2032a38.4 38.4 0 1 1-50.92864-57.4848L444.113818 25.7536c0.27904-0.256 0.56832-0.47616 0.85248-0.71936 0.8448-0.73472 1.69472-1.46176 2.56-2.1632 0.34816-0.28416 0.704-0.55552 1.05472-0.83456a102.4 102.4 0 0 1 2.88-2.21184c0.30976-0.22528 0.62208-0.44032 0.93184-0.66304 1.024-0.72448 2.02752-1.44384 3.0592-2.12736 0.31744-0.21248 0.64256-0.4096 0.96256-0.61696 1.024-0.6656 2.048-1.32352 3.10016-1.94816 0.39168-0.23552 0.7936-0.45056 1.18784-0.68096 0.98304-0.56832 1.96352-1.1392 2.95936-1.67424 0.68608-0.36864 1.3824-0.704 2.0736-1.05216s1.43872-0.75008 2.16832-1.09824q2.1888-1.04448 4.41344-1.97888c0.18688-0.07936 0.37632-0.14592 0.5632-0.22272a104.64256 104.64256 0 0 1 3.97568-1.55392c0.29952-0.11008 0.6016-0.2048 0.90112-0.30976 1.22368-0.43264 2.44736-0.85248 3.68128-1.23648 0.38144-0.11776 0.768-0.22272 1.14944-0.33792 1.14944-0.34304 2.304-0.6784 3.46368-0.98048 0.46336-0.12032 0.92672-0.22784 1.39264-0.34048 1.07264-0.256 2.1504-0.512 3.23072-0.74752 0.5504-0.11776 1.10336-0.22016 1.65632-0.32768a95.44192 95.44192 0 0 1 4.90496-0.83456c0.88064-0.128 1.76128-0.256 2.64192-0.35072q1.13664-0.13568 2.27328-0.2432t2.27072-0.192q1.3184-0.09728 2.63424-0.16384c0.60928-0.02816 1.21856-0.04864 1.82784-0.06656 1.024-0.03072 2.048-0.05376 3.0592-0.05376 0.4224 0 0.84736 0 1.28 0.01536 1.19552 0.0128 2.38848 0.0384 3.584 0.09472l0.512 0.03072a102.06464 102.06464 0 0 1 39.05792 9.94816l0.31232 0.15104q1.86624 0.90624 3.70688 1.8944l0.61184 0.3328q1.72544 0.93952 3.4176 1.94816c0.27136 0.16128 0.54016 0.33024 0.80896 0.49408 1.07776 0.65536 2.14528 1.32608 3.20256 2.02496 0.29184 0.192 0.57856 0.39424 0.86784 0.59136 1.04448 0.70912 2.0864 1.42336 3.11296 2.176 0.19968 0.14592 0.39424 0.30208 0.59392 0.45056 2.3552 1.75104 4.66688 3.584 6.912 5.57312L819.217818 237.72928V115.2a38.4 38.4 0 0 1 76.8 0v190.55872l115.06176 101.9264a38.4 38.4 0 0 1 3.28192 54.20544z" p-id="2487"></path></svg>