<?xml version="1.0" standalone="no"?><!DOCTYPE svg PUBLIC "-//W3C//DTD SVG 1.1//EN" "http://www.w3.org/Graphics/SVG/1.1/DTD/svg11.dtd"><svg t="1726671906741" class="icon" viewBox="0 0 1369 1024" version="1.1" xmlns="http://www.w3.org/2000/svg" p-id="6776" xmlns:xlink="http://www.w3.org/1999/xlink" width="267.3828125" height="200"><path d="M1340.302222 295.173689a34.224356 34.224356 0 0 1-41.8816 24.234667l-9.864533-2.651023a136.863289 136.863289 0 0 0-124.768711-80.645689H988.080356L174.2848 17.624178A34.133333 34.133333 0 0 1 152.758044 0h749.374578l416.347022 111.786667a68.596622 68.596622 0 0 1 48.389689 84.002133z m-1099.093333-59.062045l-9.398045-2.525866-0.682666 2.525866h-45.044622l5.688888-21.367466 27.818667 7.452444 4.334933-16.258844-74.877155-20.150045-4.357689 16.304356 27.500089 7.384178-7.111111 26.635377H80.418133L105.813333 141.255111a34.224356 34.224356 0 0 1 41.892978-24.257422L591.303111 236.111644H241.208889z m991.004444 136.931556v102.695822a34.235733 34.235733 0 0 1-34.224355 34.235734H34.258489A34.235733 34.235733 0 0 1 0 475.739022v-102.695822a68.460089 68.460089 0 0 1 68.460089-68.460089h1095.304533a68.460089 68.460089 0 0 1 68.448711 68.460089zM992.984178 989.934933v-51.541333a9.671111 9.671111 0 0 1 7.145244-11.650844 10.399289 10.399289 0 0 1 2.3552-0.261689h81.521778a25.827556 25.827556 0 0 1 20.206933 8.624355 36.772978 36.772978 0 0 1 0 45.727289 26.635378 26.635378 0 0 1-20.206933 9.102222h-91.022222zM34.258489 612.670578H1198.08a34.247111 34.247111 0 0 1 34.224356 34.235733V1024h-102.0928a72.465067 72.465067 0 0 0 11.6736-10.319644 79.234844 79.234844 0 0 0 21.993244-56.1152 78.006044 78.006044 0 0 0-20.343467-54.465423 69.597867 69.597867 0 0 0-54.1696-23.677155h-104.891733a46.296178 46.296178 0 0 0-31.482311 10.535822 36.238222 36.238222 0 0 0-11.946667 28.0576V1024H885.191111V898.9696a23.529244 23.529244 0 0 0-20.411733-26.294044 24.120889 24.120889 0 0 0-6.656 0.125155c-16.372622 0-24.4736 8.635733-24.4736 26.168889V1024H740.693333l47.684267-117.088711a25.838933 25.838933 0 0 0 2.207289-10.126222 19.933867 19.933867 0 0 0-8.112356-16.850489 28.967822 28.967822 0 0 0-18.978133-6.826667 23.779556 23.779556 0 0 0-23.745422 16.634311L686.671644 1024h-28.444444l-52.747378-134.326044a23.893333 23.893333 0 0 0-24.075378-16.713956 28.444444 28.444444 0 0 0-18.978133 6.826667 21.458489 21.458489 0 0 0-7.964444 17.066666 25.9072 25.9072 0 0 0 2.184533 10.1376L605.001956 1024H0V646.894933a34.235733 34.235733 0 0 1 34.258489-34.224355z m410.373689 145.794844c0 14.2336 4.926578 23.415467 18.887111 23.415467a27.227022 27.227022 0 0 0 10.410667-1.786311l-2.468978-14.916267a11.935289 11.935289 0 0 1-2.730667 0.273067c-1.911467 0-4.107378-1.513244-4.107378-6.030222v-88.746667h-19.990755v87.790933zM360.311467 741.831111a37.159822 37.159822 0 0 0 34.133333 39.958756 38.684444 38.684444 0 0 0 3.925333 0.1024 48.412444 48.412444 0 0 0 26.8288-8.487823l-6.826666-12.322133a31.630222 31.630222 0 0 1-17.248711 5.347556 20.161422 20.161422 0 0 1-21.219556-19.035023 1.3312 1.3312 0 0 0 0-0.147911h47.251911a37.546667 37.546667 0 0 0 0.955733-9.102222c0-21.230933-10.945422-36.704711-32.0512-36.704711a37.546667 37.546667 0 0 0-35.817244 39.185067c0.011378 0.386844 0.034133 0.807822 0.068267 1.206044z m-56.786489 38.138311h23.278933l25.6-76.6976h-19.342222l-11.229867 38.206578c-2.059378 7.532089-4.243911 15.485156-6.166755 23.278933h-0.682667c-2.059378-7.793778-4.243911-15.746844-6.166756-23.278933l-11.218488-38.206578H277.276444z m-81.260089 1.922845a19.217067 19.217067 0 0 0 1.9456 0 36.101689 36.101689 0 0 0 23.1424-10.126223h0.4096l1.513244 8.214756h16.429511v-44.782933c0-22.198044-9.989689-33.826133-29.434311-33.826134a61.212444 61.212444 0 0 0-32.0512 10.126223l7.293156 13.266488a43.235556 43.235556 0 0 1 21.083022-7.259022 11.946667 11.946667 0 0 1 13.038933 10.740622 12.151467 12.151467 0 0 1 0 2.537245c-30.799644 3.2768-44.088889 11.901156-44.088888 28.342044a21.777067 21.777067 0 0 0 20.718933 22.778311z m-76.629333-1.922845h20.036266v-45.738666a20.104533 20.104533 0 0 1 17.658311-15.064178 24.325689 24.325689 0 0 1 7.964445 1.2288l3.561244-17.385245a21.856711 21.856711 0 0 0-9.033955-1.649777A26.567111 26.567111 0 0 0 164.056178 716.8h-0.637156l-1.376711-13.562311H145.635556v76.686222z m-92.285156-84.491378H81.92v84.514134h20.161422v-84.514134H130.844444v-16.839111H53.3504v16.839111z m192.227556 47.661512v15.473777a20.320711 20.320711 0 0 1-14.791112 7.532089 8.590222 8.590222 0 0 1-9.989688-6.917689 8.339911 8.339911 0 0 1-0.136534-1.718044c-0.011378-6.838044 6.291911-11.901156 24.917334-14.381511z m150.744177-26.168889a14.313244 14.313244 0 0 1 14.518045 16.987022h-31.232a17.294222 17.294222 0 0 1 16.702578-16.987022z" p-id="6777"></path></svg>