<?xml version="1.0" standalone="no"?><!DOCTYPE svg PUBLIC "-//W3C//DTD SVG 1.1//EN" "http://www.w3.org/Graphics/SVG/1.1/DTD/svg11.dtd"><svg t="1726671910578" class="icon" viewBox="0 0 1365 1024" version="1.1" xmlns="http://www.w3.org/2000/svg" p-id="6934" xmlns:xlink="http://www.w3.org/1999/xlink" width="266.6015625" height="200"><path d="M1216.4096 1024a8638.702933 8638.702933 0 0 1-0.147911-68.391822 55.0912 55.0912 0 0 0-25.031111-47.991467l-0.170667-0.079644-0.159289-0.079645a135.111111 135.111111 0 0 0-22.550755-11.855644 332.970667 332.970667 0 0 1-33.0752-15.837867c0.227556-7.964444 0.4096-15.655822 0.489244-23.381333a7.5776 7.5776 0 0 0-1.786311-5.199645 86.880711 86.880711 0 0 1-19.899733-41.483377 10.387911 10.387911 0 0 0-4.448711-5.279289 33.234489 33.234489 0 0 1-8.772267-41.972623 12.515556 12.515556 0 0 0 1.786311-8.362666 276.718933 276.718933 0 0 1-6.337422-41.733689c-0.238933-4.027733-0.3072-8.078222-0.159289-12.105956 1.706667-47.502222 27.739022-71.532089 72.487822-74.9568a141.846756 141.846756 0 0 1 36.488533 2.673778 57.617067 57.617067 0 0 1 17.066667 10.148978 28.228267 28.228267 0 0 0 5.8368 3.322311 49.004089 49.004089 0 0 1 39.424 44.191289c0.159289 1.137778 0.329956 2.275556 0.398222 3.413333a173.226667 173.226667 0 0 1-7.304533 63.579022 9.955556 9.955556 0 0 0 1.706667 10.319645 32.073956 32.073956 0 0 1-9.102223 41.176178 10.353778 10.353778 0 0 0-4.471466 6.007466 86.755556 86.755556 0 0 1-19.217067 40.356978 9.9328 9.9328 0 0 0-2.116267 5.768533 244.974933 244.974933 0 0 0 1.456356 34.417778 24.871822 24.871822 0 0 0 9.250133 15.2576 17.464889 17.464889 0 0 0 1.547378 1.069511 234.780444 234.780444 0 0 0 31.9488 18.204445c14.347378 6.906311 29.582222 11.946667 43.861333 18.921244a80.361244 80.361244 0 0 1 45.2608 46.933334c2.025244 6.417067 3.242667 13.152711 4.699023 19.979377V1024h-148.957867z m-7.418311-549.717333C868.590933 348.933689 528.156444 609.143467 187.733333 530.204444V0h971.104711a1369.782044 1369.782044 0 0 0-117.464177 107.485867 33.837511 33.837511 0 0 0-0.329956 46.535111 2442.012444 2442.012444 0 0 1 202.376533 273.567289c10.171733 15.928889 11.9808 32.267378 4.7104 41.790577s-22.607644 10.979556-39.139555 4.903823zM403.456 108.532622a693.8624 693.8624 0 0 1-154.282667 2.013867v245.668978q21.617778 2.3552 43.349334 3.037866v-99.282489a739.692089 739.692089 0 0 0 104.118044-4.289422v-39.924622a738.326756 738.326756 0 0 1-104.118044 4.289422v-65.8432a749.420089 749.420089 0 0 0 110.944711-5.051733v-40.618667z m209.578667 34.235734c0-44.839822-27.306667-67.913956-84.309334-55.546312-28.672 6.098489-57.344 11.605333-86.016 16.008534v245.680355q21.674667-3.333689 43.349334-7.441066V246.897778q18.944-3.572622 37.888-7.5776 24.576 42.097778 49.152 83.649422 25.031111-5.757156 50.176-11.753244-29.013333-43.793067-58.026667-87.802312a89.474844 89.474844 0 0 0 47.786667-80.634311z m198.667377 87.608888v0.079645c-36.408889 5.768533-72.817778 13.243733-109.226666 21.424355V189.098667c32.540444-7.315911 65.080889-14.062933 97.609955-19.535645v-39.913244c-32.529067 5.461333-65.069511 12.219733-97.609955 19.535644v-61.44c35.498667-7.964444 70.985956-15.291733 106.496-20.992V26.168889c-49.948444 7.964444-99.908267 19.239822-149.845334 30.981689v245.76c50.847289-11.958044 101.728711-23.369956 152.576-31.414045v-40.96z m198.644623-8.021333a644.869689 644.869689 0 0 0-109.226667-2.002489v-62.805333a656.770844 656.770844 0 0 1 97.632711 0.876089v-39.901867a655.849244 655.849244 0 0 0-97.632711-0.876089v-61.44a648.009956 648.009956 0 0 1 106.507378 1.718045V17.328356q-18.761956-1.934222-37.489778-2.594134-9.363911-0.364089-18.727822-0.443733t-18.7392 0.091022c-25.031111 0.466489-49.937067 2.275556-74.911289 5.097245V265.102222a692.1216 692.1216 0 0 1 152.587378-1.809066v-40.96z m-484.340623-22.641778q-19.968 4.221156-39.936 7.964445v-72.635734q20.48-3.845689 40.96-8.203377c27.989333-5.984711 40.96 3.208533 40.96 26.441955-0.022756 25.201778-14.358756 40.5504-42.006755 46.444089zM0 1024V0h119.466667v1024H0z m632.285867-334.893511c0.079644-1.137778 0.238933-2.275556 0.4096-3.413333a48.924444 48.924444 0 0 1 39.412622-44.179912 28.103111 28.103111 0 0 0 5.8368-3.310933 57.571556 57.571556 0 0 1 17.066667-10.160355 141.971911 141.971911 0 0 1 36.488533-2.673778c44.760178 3.413333 70.803911 27.454578 72.4992 74.968178a118.715733 118.715733 0 0 1-0.170667 12.094577 277.492622 277.492622 0 0 1-6.314666 41.654045 12.515556 12.515556 0 0 0 1.774933 8.351289 33.257244 33.257244 0 0 1-8.760889 41.984 10.353778 10.353778 0 0 0-4.471467 5.267911 86.823822 86.823822 0 0 1-19.854222 41.3696 7.509333 7.509333 0 0 0-1.774933 5.199644c0.068267 7.702756 0.227556 15.439644 0.489244 23.381334a334.244978 334.244978 0 0 1-33.086578 15.837866 134.997333 134.997333 0 0 0-22.539377 11.855645l-0.159289 0.079644-0.170667 0.079645a55.057067 55.057067 0 0 0-25.031111 47.991466c0.056889 7.964444 0 39.719822-0.159289 68.5056H534.880711v-12.9024c1.456356-6.826667 2.673778-13.562311 4.699022-19.979378a80.406756 80.406756 0 0 1 45.283556-46.921955c14.279111-6.985956 29.513956-12.014933 43.872711-18.909867a235.246933 235.246933 0 0 0 31.937422-18.204444 17.146311 17.146311 0 0 0 1.536-1.058134 24.940089 24.940089 0 0 0 9.250134-15.2576 243.211378 243.211378 0 0 0 1.297066-34.429155 9.807644 9.807644 0 0 0-2.104889-5.757156 86.903467 86.903467 0 0 1-19.217066-40.356977 10.353778 10.353778 0 0 0-4.460089-6.018845 32.062578 32.062578 0 0 1-9.102222-41.1648 9.944178 9.944178 0 0 0 1.706666-10.319644 173.659022 173.659022 0 0 1-7.293155-63.601778zM705.752178 1024c0.136533-27.488711 0.2048-56.1152 0.170666-63.442489a29.263644 29.263644 0 0 1 13.573689-26.168889 99.487289 99.487289 0 0 1 17.863111-9.477689c33.9968-14.074311 51.2-27.898311 85.333334-41.563022a143.36 143.36 0 0 1 22.175289-6.951822 21.321956 21.321956 0 0 0 14.404266-10.365156 348.842667 348.842667 0 0 0 12.060445-22.311822 9.944178 9.944178 0 0 1 8.123733-6.826667c5.688889-0.4096 5.802667-3.640889 3.618133-7.441066-1.8432-3.413333-4.9152-6.382933-6.690133-9.853156-0.466489-0.887467-0.955733-1.774933-1.353955-2.673778a41.801956 41.801956 0 0 1-4.664889-12.117333c-0.728178-4.551111-1.194667-9.102222-1.536-13.596444-0.466489-5.688889-0.796444-11.5712-1.604267-17.3056a7.452444 7.452444 0 0 0-4.733156-5.154134 17.066667 17.066667 0 0 1-15.109688-14.404266c-2.889956-15.121067-4.551111-30.481067-6.508089-45.693156a4.460089 4.460089 0 0 1 0.466489-3.072c8.135111-11.081956 4.357689-22.755556 2.582755-34.781867a130.332444 130.332444 0 0 1 2.025245-57.901511 59.403378 59.403378 0 0 1 37.421511-40.1408 189.656178 189.656178 0 0 1 57.002666-15.610311c2.6624-0.170667 5.313422-0.238933 7.964445-0.238933a75.992178 75.992178 0 0 1 52.087466 17.954133 28.080356 28.080356 0 0 0 13.5168 5.688889 19.342222 19.342222 0 0 1 15.041423 10.023822 93.764267 93.764267 0 0 1 9.250133 54.829511c-1.137778 14.472533-1.524622 29.104356-2.013867 43.576889a13.198222 13.198222 0 0 0 2.013867 6.564978c11.821511 20.3776 7.315911 40.96 0.159289 61.212445a14.791111 14.791111 0 0 1-7.236267 8.317155 24.018489 24.018489 0 0 0-14.870755 25.031111v0.091022a48.412444 48.412444 0 0 1-3.219911 19.160178 37.899378 37.899378 0 0 1-8.362667 12.629334 15.064178 15.064178 0 0 0-2.730667 4.926577c-3.060622 7.441067-2.173156 9.466311 5.688889 10.353778a10.877156 10.877156 0 0 1 10.24 8.237511 92.307911 92.307911 0 0 1 4.175645 8.578845 62.577778 62.577778 0 0 0 12.868266 25.031111c19.933867 7.122489 39.560533 15.451022 59.335111 23.290311 17.772089 7.122489 35.703467 14.074311 53.475556 21.0944a143.826489 143.826489 0 0 1 15.507911 6.9632 33.473422 33.473422 0 0 1 19.467378 32.676978c-0.170667 6.747022-0.159289 34.133333 0 60.8256H705.752178z" p-id="6935"></path></svg>