<?xml version="1.0" standalone="no"?><!DOCTYPE svg PUBLIC "-//W3C//DTD SVG 1.1//EN" "http://www.w3.org/Graphics/SVG/1.1/DTD/svg11.dtd"><svg t="1726671851494" class="icon" viewBox="0 0 1024 1024" version="1.1" xmlns="http://www.w3.org/2000/svg" p-id="4554" xmlns:xlink="http://www.w3.org/1999/xlink" width="200" height="200"><path d="M1021.02528 977.80736c-9.66144 2.86208-43.43808 11.39712-108.38016 12.92288-0.24576-22.67648-0.36864-68.39808-0.3072-76.99456a41.344 41.344 0 0 0-18.76992-36.02432l-0.12288-0.06144-0.11776-0.06144a101.376 101.376 0 0 0-16.896-8.89856 249.65632 249.65632 0 0 1-24.78592-11.88864c0.1792-5.97504 0.30208-11.776 0.36352-17.55648a5.632 5.632 0 0 0-1.33632-3.90144 65.33632 65.33632 0 0 1-14.88384-31.08864 7.78752 7.78752 0 0 0-3.34336-3.96288c-9.10848-5.30432-12.75392-22.92224-6.55872-31.51872a9.44128 9.44128 0 0 0 1.33632-6.27712 208.86016 208.86016 0 0 1-4.74112-31.3344 90.86976 90.86976 0 0 1-0.11776-9.08288c1.27488-35.6608 20.77696-53.70368 54.30784-56.26368a105.93792 105.93792 0 0 1 27.3408 2.01216 43.04384 43.04384 0 0 1 12.8 7.61856 21.02784 21.02784 0 0 0 4.3776 2.49856 36.736 36.736 0 0 1 29.52192 33.16224c0.12288 0.85504 0.24576 1.70496 0.3072 2.56a130.80576 130.80576 0 0 1-5.46816 47.73376 7.47008 7.47008 0 0 0 1.27488 7.74144c6.44096 8.1664 2.24768 25.78432-6.80448 30.90432a7.79264 7.79264 0 0 0-3.34336 4.51072 65.2288 65.2288 0 0 1-14.39744 30.30016 7.37792 7.37792 0 0 0-1.57696 4.3264 182.30784 182.30784 0 0 0 0.9728 25.84576 18.69824 18.69824 0 0 0 6.92224 11.46368 12.8768 12.8768 0 0 0 1.15712 0.78848 175.54944 175.54944 0 0 0 23.936 13.65504c10.752 5.18144 22.17472 8.96512 32.86528 14.208 15.43168 7.61856 28.36992 17.98144 33.89952 35.23072 1.536 4.81792 2.42688 9.87648 3.52256 14.99648v21.504a188.7232 188.7232 0 0 1-2.95424 0.93184zM931.2512 81.64352a1026.97984 1026.97984 0 0 0-150.1952 127.7952 25.32352 25.32352 0 0 0-0.22528 34.87232 1828.71552 1828.71552 0 0 1 151.78752 204.97408c7.62368 11.98592 8.9856 24.17152 3.52768 31.30368-5.57568 7.13216-16.95744 8.22272-29.35808 3.66592-255.32928-93.91104-510.65856 101.04832-765.98784 41.9072v-458.2912c254.976 59.04384 509.85984-135.02976 764.8512-42.30144 12.63104 4.5568 68.49536 26.25536 25.6 56.07424zM302.592 210.2272a521.01632 521.01632 0 0 1-115.712 1.50528v184.06912q16.256 1.75104 32.512 2.2784V323.6864a554.73152 554.73152 0 0 0 78.08-3.21536V290.56a554.65472 554.65472 0 0 1-78.08512 3.21536v-49.34144A561.78688 561.78688 0 0 0 302.592 240.64v-30.4128z m157.184 25.6512c0-33.59232-20.48-50.88256-63.23712-41.62048-21.504 4.57216-43.008 8.704-64.512 12.00128v184.06912q16.256-2.49856 32.512-5.57056V313.93792q14.208-2.66752 28.416-5.67296 18.432 31.53408 36.864 62.67904 18.816-4.31104 37.632-8.8064-21.76-32.81408-43.52-65.78176A67.03104 67.03104 0 0 0 459.776 235.87328z m148.992 65.6896c-27.30496 4.31616-54.61504 9.92768-81.92 16.0512v-47.03232c24.40704-5.47328 48.81408-10.53696 73.216-14.63296v-29.91104c-24.40704 4.096-48.81408 9.15968-73.216 14.63296v-46.01856c26.624-5.96992 53.248-11.45344 79.872-15.72352v-30.42816c-37.46304 6.01088-74.92608 14.41792-112.38912 23.21408v184.07424c38.144-8.95488 76.288-17.5104 114.43712-23.552V301.568z m148.992-6.0672a484.54144 484.54144 0 0 0-81.92-1.50528v-47.04256a492.76928 492.76928 0 0 1 73.216 0.65536v-29.91104a492.76928 492.76928 0 0 0-73.216-0.65536V171.008a486.45632 486.45632 0 0 1 79.872 1.29024v-30.40768q-14.0544-1.44384-28.09856-1.97632-7.02464-0.27136-14.04928-0.33792t-14.04928 0.06656c-18.73408 0.34816-37.46304 1.70496-56.19712 3.82464v184.06912A519.55712 519.55712 0 0 1 757.76 326.17984v-30.67904zM394.496 278.528q-14.976 3.16416-29.952 5.99552V230.08256q15.36-2.88256 30.72-6.144c20.992-4.48 30.72 2.4064 30.72 19.8144 0 18.90304-10.752 30.37696-31.488 34.77504zM64 1024H25.6a25.6 25.6 0 0 1-25.6-25.6V25.6a25.6 25.6 0 0 1 25.6-25.6h38.4a25.6 25.6 0 0 1 25.6 25.6v972.8a25.6 25.6 0 0 1-25.6 25.6z m375.33184-118.784c10.69056-5.23776 22.11328-9.02144 32.86528-14.20288a175.72864 175.72864 0 0 0 23.936-13.65504 12.84608 12.84608 0 0 0 1.152-0.78848 18.7136 18.7136 0 0 0 6.92736-11.46368 182.784 182.784 0 0 0 0.9728-25.84576 7.37792 7.37792 0 0 0-1.57696-4.3264 65.26976 65.26976 0 0 1-14.39744-30.30016 7.7824 7.7824 0 0 0-3.34336-4.51072c-9.05216-5.12-13.24544-22.73792-6.80448-30.90432a7.47008 7.47008 0 0 0 1.27488-7.74144 130.70336 130.70336 0 0 1-5.46816-47.73376c0.06144-0.85504 0.18432-1.70496 0.30208-2.56a36.74112 36.74112 0 0 1 29.52704-33.16224 20.992 20.992 0 0 0 4.37248-2.49856 43.12064 43.12064 0 0 1 12.8-7.61856 105.984 105.984 0 0 1 27.3408-2.01216c33.536 2.56 53.03296 20.60288 54.31296 56.26368 0.11776 3.0464 0.05632 6.09792-0.12288 9.08288a209.2544 209.2544 0 0 1-4.74112 31.27296 9.44128 9.44128 0 0 0 1.33632 6.27712c6.20032 8.59648 2.56 26.2144-6.55872 31.51872a7.78752 7.78752 0 0 0-3.34336 3.96288 65.33632 65.33632 0 0 1-14.88384 31.08864 5.632 5.632 0 0 0-1.33632 3.90144c0.06144 5.79072 0.18432 11.58144 0.36352 17.55648a249.65632 249.65632 0 0 1-24.78592 11.88864 101.12512 101.12512 0 0 0-16.896 8.89856l-0.12288 0.06144-0.12288 0.06144a41.344 41.344 0 0 0-18.76992 36.02432c0.06144 8.59648-0.06144 54.31808-0.30208 76.99456-64.9472-1.46432-98.72384-9.99936-108.38016-12.86144-1.76128-0.54784-2.73408-0.85504-2.97472-0.91648v-21.504c1.09056-5.12 2.00192-10.17856 3.52256-14.99648 5.5552-17.28 18.49856-27.64288 33.92512-35.2512z m91.07968 11.64288a21.93408 21.93408 0 0 1 10.1888-19.63008 74.54208 74.54208 0 0 1 13.38368-7.0912c25.50272-10.54208 38.4-20.89984 64-31.13984a107.25888 107.25888 0 0 1 16.64-5.21216 15.94368 15.94368 0 0 0 10.79296-7.7568 265.09824 265.09824 0 0 0 9.04192-16.72192 7.46496 7.46496 0 0 1 6.08768-5.15072c4.21888-0.30208 4.34176-2.72896 2.7136-5.57568-1.38752-2.60608-3.67616-4.7872-5.00224-7.39328-0.36352-0.6656-0.72704-1.3312-1.024-1.9968a31.28832 31.28832 0 0 1-3.49696-9.09312 118.3232 118.3232 0 0 1-1.14176-10.17856c-0.36352-4.3008-0.60416-8.66304-1.20832-12.96384a5.632 5.632 0 0 0-3.55328-3.88096 12.8 12.8 0 0 1-11.33568-10.72128c-2.17088-11.33568-3.3792-22.84544-4.88448-34.23744a3.36896 3.36896 0 0 1 0.36352-2.304c6.08768-8.29952 3.25632-17.08544 1.92512-26.05568a97.67424 97.67424 0 0 1 1.536-43.38176 44.544 44.544 0 0 1 28.032-30.0544 142.49472 142.49472 0 0 1 42.74688-11.69408 96.6656 96.6656 0 0 1 5.9648-0.1792 56.9856 56.9856 0 0 1 39.07072 13.45024 20.992 20.992 0 0 0 10.12736 4.23936 14.49472 14.49472 0 0 1 11.264 7.51616 70.08256 70.08256 0 0 1 6.93248 41.07776c-0.8448 10.84928-1.14688 21.81632-1.50528 32.66048a9.9072 9.9072 0 0 0 1.50528 4.91008c8.86272 15.26784 5.48864 30.65856 0.12288 45.87008a11.11552 11.11552 0 0 1-5.4272 6.23616 18.01216 18.01216 0 0 0-11.15648 18.72384v0.06144a36.26496 36.26496 0 0 1-2.41152 14.3616 28.32896 28.32896 0 0 1-6.26688 9.45152 11.1872 11.1872 0 0 0-2.048 3.69664c-2.28864 5.57568-1.62304 7.0912 4.224 7.7568a8.1408 8.1408 0 0 1 7.71584 6.17984 70.656 70.656 0 0 1 3.13344 6.42048c1.08544 5.03296 7.1168 17.87904 9.64608 18.78528 14.9504 5.33504 29.66528 11.57632 44.4928 17.44896 13.312 5.33504 26.76736 10.5472 40.09472 15.81568a104.82688 104.82688 0 0 1 11.63264 5.21216 25.0624 25.0624 0 0 1 14.592 24.47872c-0.24064 9.75872 0 77.07648 0.3584 86.83008-14.2848 4.3008-68.66432 18.36032-178.45248 18.36032-109.48096 0-165.00736-13.93664-179.89632-18.432 0.29696-10.368 0.54272-78.28992 0.50176-88.71424z" p-id="4555"></path></svg>