<?xml version="1.0" standalone="no"?><!DOCTYPE svg PUBLIC "-//W3C//DTD SVG 1.1//EN" "http://www.w3.org/Graphics/SVG/1.1/DTD/svg11.dtd"><svg t="1726671903705" class="icon" viewBox="0 0 1365 1024" version="1.1" xmlns="http://www.w3.org/2000/svg" p-id="6618" xmlns:xlink="http://www.w3.org/1999/xlink" width="266.6015625" height="200"><path d="M1297.066667 376.513422H750.933333V103.799467h546.133334a68.266667 68.266667 0 0 1 68.266666 68.175644V308.337778a68.266667 68.266667 0 0 1-68.266666 68.175644zM981.071644 36.295111H749.795556c-36.408889 0-51.768889-16.6912-49.117867-36.295111h334.381511a51.427556 51.427556 0 0 1-53.987556 36.295111zM615.537778 37.319111H384.250311A51.518578 51.518578 0 0 1 329.819022 0h334.506667c3.333689 20.059022-11.810133 37.319111-48.787911 37.319111zM614.4 376.513422H68.266667A68.266667 68.266667 0 0 1 0 308.337778V171.975111a68.266667 68.266667 0 0 1 68.266667-68.175644h546.133333v272.725333z m682.666667 136.362667V1024H862.082844a233.938489 233.938489 0 0 1 8.704-33.860267 400.395378 400.395378 0 0 1 28.16-68.425955l23.790934-43.497245-48.059734-5.688889a182.738489 182.738489 0 0 1-30.845155-20.707555 144.497778 144.497778 0 0 0 15.371378-2.685156 59.835733 59.835733 0 0 0 39.2192-25.6 82.158933 82.158933 0 0 0 9.102222-31.197866l5.404444-59.380623v-20.48l-5.984711-41.870222a445.326222 445.326222 0 0 0-11.184355-70.951822 66.161778 66.161778 0 0 0-39.503645-42.461867 136.795022 136.795022 0 0 0-53.76-9.568711 272.156444 272.156444 0 0 0-51.564089 5.961956v-108.885334h477.866667a68.266667 68.266667 0 0 1 68.266667 68.175645z m-433.641245 95.573333c13.653333 49.311289 18.625422 176.571733 6.075734 197.973334-15.428267 26.168889-158.549333 15.086933-244.622223-38.0928a78.119822 78.119822 0 0 0 13.4144-45.010489S718.381511 666.737778 815.4112 688.355556c-87.3472-27.636622-177.334044 27.989333-177.334044 27.989333a70.792533 70.792533 0 0 0-21.4016-47.240533c68.755911-90.487467 232.5504-112.162133 246.749866-60.609423zM588.470044 780.208356h-20.798577c-23.358578 0-42.245689-25.463467-42.245689-56.820623s18.887111-56.820622 42.245689-56.820622h20.798577c23.358578 0 42.313956 25.417956 42.313956 56.820622s-18.944 56.820622-42.313956 56.820623z m-44.145777 1.058133C513.9456 844.3904 450.321067 965.165511 383.522133 1024H328.476444a445.383111 445.383111 0 0 0-41.847466-118.328889c18.056533-2.161778 60.939378-37.376 106.632533-79.542044a375.307378 375.307378 0 0 0 143.621689-51.074845 48.264533 48.264533 0 0 0 7.441067 6.200889z m-26.464711-57.912889a78.062933 78.062933 0 0 0 13.482666 44.999111c-86.129778 53.168356-229.239467 64.216178-244.622222 38.070045-12.515556-21.344711-7.554844-148.616533 6.087111-197.973334 14.210844-51.552711 178.050844-29.889422 246.897778 60.598045a70.542222 70.542222 0 0 0-21.504 47.240533s-90.066489-55.614578-177.368178-27.932444c96.961422-21.617778 177.026844 34.986667 177.026845 34.986666zM482.417778 958.372978a985.508978 985.508978 0 0 0 30.5152-47.786667l47.786666-108.088889a62.327467 62.327467 0 0 0 16.384 4.107378 58.88 58.88 0 0 0 16.384-4.107378L614.4 848.167822V1024H431.217778a675.350756 675.350756 0 0 0 51.2-65.627022z m136.840533-183.364267A374.966044 374.966044 0 0 0 762.88 826.026667c45.704533 42.166044 88.576 77.368889 106.632533 79.542044A446.6688 446.6688 0 0 0 827.687822 1024h-55.034311c-66.798933-58.845867-130.423467-179.6096-160.824889-242.756267a44.578133 44.578133 0 0 0 7.429689-6.235022zM136.533333 444.700444h477.866667V624.64l-25.031111 22.300444h-24.576l-51.894045-47.877688a295.936 295.936 0 0 0-159.288888-51.586845 137.773511 137.773511 0 0 0-53.828267 9.591467 66.218667 66.218667 0 0 0-39.492267 42.450489 445.462756 445.462756 0 0 0-11.195733 70.985955l-3.845689 33.780622v32.722489l3.333689 55.296a80.668444 80.668444 0 0 0 9.102222 31.072711 59.380622 59.380622 0 0 0 39.276089 25.725156 143.041422 143.041422 0 0 0 15.291733 2.685156c-1.024 0.750933-2.116267 1.683911-3.140266 2.480355a213.265067 213.265067 0 0 1-21.617778 15.030045 47.354311 47.354311 0 0 1-5.893689 3.106133 0.750933 0.750933 0 0 0-0.261689 0.091022L241.208889 876.088889h-12.288l28.353422 45.511111a403.1488 403.1488 0 0 1 27.966578 68.391822A233.608533 233.608533 0 0 1 294.035911 1024H68.266667V512.876089a68.266667 68.266667 0 0 1 68.266666-68.175645z" p-id="6619"></path></svg>