<?xml version="1.0" standalone="no"?><!DOCTYPE svg PUBLIC "-//W3C//DTD SVG 1.1//EN" "http://www.w3.org/Graphics/SVG/1.1/DTD/svg11.dtd"><svg t="1726671858064" class="icon" viewBox="0 0 1024 1024" version="1.1" xmlns="http://www.w3.org/2000/svg" p-id="4868" xmlns:xlink="http://www.w3.org/1999/xlink" width="200" height="200"><path d="M1022.30016 277.05344l-19.87584 74.32192a25.6 25.6 0 0 1-31.35488 18.13504l-7.38304-1.98144A102.34368 102.34368 0 0 0 870.4 307.2h-131.44576L130.3296 143.81568a25.6512 25.6512 0 0 1-18.10432-31.4112L132.096 38.08256A51.2 51.2 0 0 1 194.81088 1.81248L986.112 214.23104a51.3024 51.3024 0 0 1 36.18816 62.8224zM180.4032 307.2l-7.03488-1.88928-0.512 1.88928h-33.69984l4.2752-15.97952 20.77696 5.57568 3.26144-12.19072-55.99744-15.03232-3.26144 12.19072 20.57728 5.52448L123.46368 307.2h-63.3344l18.9696-70.92736a25.6 25.6 0 0 1 31.35488-18.16064L442.21952 307.2H180.4032zM921.6 409.6v76.8a25.6 25.6 0 0 1-25.6 25.6H25.6a25.6 25.6 0 0 1-25.6-25.6V409.6a51.2 51.2 0 0 1 51.2-51.2h819.2a51.2 51.2 0 0 1 51.2 51.2zM25.6 588.8h870.4a25.6 25.6 0 0 1 25.6 25.6v358.4a51.2 51.2 0 0 1-51.2 51.2H51.2a51.2 51.2 0 0 1-51.2-51.2v-358.4a25.6 25.6 0 0 1 25.6-25.6z m678.19008 366.11584c0 11.97568 6.4768 17.92 19.456 17.92s19.456-5.9392 19.456-17.92v-48.52224h69.71392a54.30784 54.30784 0 0 0 41.64096-17.71008 59.29472 59.29472 0 0 0 16.45056-41.984 58.41408 58.41408 0 0 0-15.21664-40.74496 52.07552 52.07552 0 0 0-40.50944-17.71008h-78.49984a34.59584 34.59584 0 0 0-23.552 7.8848 27.06944 27.06944 0 0 0-8.94464 20.992v137.78432z m-80.30208-2.048c0 13.20448 6.0672 19.86048 18.29888 19.86048 13.47072 0 20.25984-6.4512 20.25984-19.55328v-150.272c0-13.1072-6.78912-19.55328-20.25984-19.55328-12.23168 0-18.29888 6.44608-18.29888 19.55328v149.9648zM416.30208 808.96l58.50624 141.47072c6.272 14.94528 15.63136 22.31808 28.16 22.31808 13.3632 0 22.92736-7.4752 28.99456-22.31808l57.68192-141.57312a19.39456 19.39456 0 0 0 1.64352-7.57248 14.90432 14.90432 0 0 0-6.0672-12.5952 21.62176 21.62176 0 0 0-14.18752-5.12 17.77152 17.77152 0 0 0-17.78688 12.48768L505.344 917.14048a6.656 6.656 0 0 1-2.46784 3.7888 4.9664 4.9664 0 0 1-2.26304-3.2768l-47.81056-121.71264a17.85344 17.85344 0 0 0-17.99168-12.48768 21.248 21.248 0 0 0-14.18752 5.12 16.0512 16.0512 0 0 0-5.9648 12.8 19.40992 19.40992 0 0 0 1.64352 7.58784z m-83.77344-111.104c0 10.6496 3.6864 17.51552 14.13632 17.51552a20.38784 20.38784 0 0 0 7.7824-1.33632l-1.8432-11.1616a8.48896 8.48896 0 0 1-2.048 0.2048c-1.4336 0-3.072-1.1264-3.072-4.5056v-66.38592h-14.95552V697.856z m-34.60608 17.51552a36.18816 36.18816 0 0 0 20.07552-6.35392l-5.12-9.216a23.64416 23.64416 0 0 1-12.90752 3.9936 15.06816 15.06816 0 0 1-15.872-14.336h35.328a27.97568 27.97568 0 0 0 0.7168-6.8608c0-15.872-8.192-27.44832-23.96672-27.44832-13.72672 0-26.73152 11.57632-26.73152 30.208 0.00512 18.83136 12.50304 29.99808 28.47744 29.99808z m-70.9632-1.43872h17.408l19.15392-57.344h-14.4384l-8.3968 28.57472c-1.536 5.632-3.1744 11.57632-4.608 17.408h-0.512c-1.536-5.8368-3.1744-11.776-4.608-17.408l-8.3968-28.57472h-15.16544z m-59.2896 1.43872a26.97728 26.97728 0 0 0 17.31072-7.58272h0.3072l1.1264 6.144h12.288v-33.4848c0-16.59392-7.4752-25.29792-22.016-25.29792a45.82912 45.82912 0 0 0-23.96672 7.5776l5.4272 9.93792a32.4096 32.4096 0 0 1 15.77472-5.4272 8.93952 8.93952 0 0 1 9.728 9.9328c-23.04 2.4576-32.97792 8.9088-32.97792 21.20192a16.29696 16.29696 0 0 0 16.9984 16.98304z m-58.7776-1.43872h14.95552v-34.20672c3.2768-8.2944 8.704-11.264 13.2096-11.264a18.07872 18.07872 0 0 1 5.9392 0.9216l2.6624-13.00992a16.2304 16.2304 0 0 0-6.7584-1.2288 19.8656 19.8656 0 0 0-16.28672 11.57632h-0.4096l-1.024-10.14272h-12.288v57.344zM39.87456 650.752h21.30432v63.19104h15.16032V650.752h21.504v-12.60032H39.87456v12.60032z m143.77472 35.64032v11.57632a15.2064 15.2064 0 0 1-11.0592 5.632 6.43072 6.43072 0 0 1-7.5776-6.4512c-0.00512-5.1456 4.70528-8.93952 18.6368-10.78272z m112.73728-19.5584c7.3728 0 10.85952 4.9152 10.85952 12.6976h-23.35232a12.928 12.928 0 0 1 12.4928-12.7232z m453.36576 156.672h60.96896a19.29728 19.29728 0 0 1 15.11424 6.4512 27.47904 27.47904 0 0 1 0 34.19136 19.90656 19.90656 0 0 1-15.11424 6.85568H742.656v-38.58944c0-5.86752 2.36544-8.93952 7.09632-8.93952z" p-id="4869"></path></svg>