<?xml version="1.0" standalone="no"?><!DOCTYPE svg PUBLIC "-//W3C//DTD SVG 1.1//EN" "http://www.w3.org/Graphics/SVG/1.1/DTD/svg11.dtd"><svg t="1726671855057" class="icon" viewBox="0 0 1024 1024" version="1.1" xmlns="http://www.w3.org/2000/svg" p-id="4712" xmlns:xlink="http://www.w3.org/1999/xlink" width="200" height="200"><path d="M972.73259 409.642575h-409.571617V204.856767h409.571617a51.196452 51.196452 0 0 1 51.196452 51.196452v102.392904a51.196452 51.196452 0 0 1-51.196452 51.196452z m-236.983257-255.470296h-173.438221c-47.392556 0-47.392556-37.614033-11.519202-59.121663 26.54536-15.8709 113.185116-60.473249 164.852576-88.733691 45.124553-24.640852 58.788886 28.28604 63.074029 64.50753 4.295382 36.308524 4.295382 83.347824-42.969182 83.347824z m-274.095566 0.762827H288.16435c-47.264565 0-47.264565-46.993223-42.953823-83.332465S263.149764-17.55598 308.233359 7.084872C359.834263 35.39651 446.576412 79.968141 473.096174 95.741768 508.892734 117.310834 508.892734 154.940226 461.653767 154.940226zM460.768069 409.642575H51.196452A51.196452 51.196452 0 0 1 0 358.446123V256.053219a51.196452 51.196452 0 0 1 51.196452-51.196452h409.571617v204.785808zM102.392904 460.839027h358.375165v135.158634l-18.783978 16.782197h-18.430723l-38.909304-35.945029a221.721595 221.721595 0 0 0-119.446442-38.760834 103.206928 103.206928 0 0 0-40.363283 7.198221 49.660559 49.660559 0 0 0-29.617148 31.869791 335.085899 335.085899 0 0 0-8.401337 53.305746l-2.882361 25.311526v24.574297l2.498387 41.525442a60.60636 60.60636 0 0 0 6.814248 23.325104c9.072011 13.874239 19.823266 16.510856 29.422601 19.321541a107.753173 107.753173 0 0 0 11.468005 2.012021c-0.767947 0.57852-1.58197 1.274792-2.349917 1.87379a160.244895 160.244895 0 0 1-16.224155 11.263219 35.397227 35.397227 0 0 1-4.418254 2.324319 0.844741 0.844741 0 0 0-0.189427 0.071675l-30.093275 2.703173h-9.215361l21.261886 34.209469a303.656397 303.656397 0 0 1 20.990546 51.355161 175.885411 175.885411 0 0 1 9.312634 44.807135c0 0.962493-0.046077 1.704842-0.046076 2.140012l-2.974514 35.873354 34.700955-9.548139c43.916317-13.311078 76.461901-53.756275 106.846996-97.007037a742.000419 742.000419 0 0 0 22.895053-35.950149l35.837516-81.171974a46.16896 46.16896 0 0 0 12.287149 3.071787 43.849761 43.849761 0 0 0 12.287148-3.071787l15.712191 34.301622V1024H127.99113a76.794678 76.794678 0 0 1-76.794678-76.794678v-435.169843a51.196452 51.196452 0 0 1 51.196452-51.196452z m545.129583 122.999476c10.23929 37.030394 13.966392 132.598811 4.561604 148.62842-11.570398 19.62872-118.893521 11.324655-183.452247-28.608577a58.660895 58.660895 0 0 0 10.080581-33.789659s60.048319-42.493055 132.813836-26.304737c-65.531459-20.755042-133.003263 21.046861-133.003263 21.046862a53.177755 53.177755 0 0 0-16.080805-35.468902c51.595784-67.942812 174.441671-84.213044 185.080294-45.503407z m-28.700731 335.531308z m-159.978674-205.809738a33.753821 33.753821 0 0 0 5.570174-4.679355c30.333898 20.130445 71.521444 32.765729 107.707096 38.346142 34.270905 31.654766 66.432516 58.102853 79.968858 59.710422-17.760049 32.47391-35.325552 88.267803-33.277694 112.437649-62.818047-17.283922-131.216507-146.017401-159.968434-205.819977z m-33.113865-86.107312H441.313417c17.519426 0 31.7418 19.075798 31.7418 42.621046s-14.212135 42.667123-31.7418 42.667123h-15.58932c-17.519426 0-31.680365-19.126994-31.680364-42.667123s14.160939-42.626166 31.680364-42.626166z m-210.765554 105.014162c-9.409908-16.034729-5.667447-111.608266 4.561604-148.62842 10.653982-38.709637 133.530586-22.439405 185.13149 45.503407a52.983208 52.983208 0 0 0-16.126882 35.468902s-67.487163-41.807023-132.952067-21.046862c72.698962-16.178079 132.76264 26.304737 132.76264 26.304737a58.650656 58.650656 0 0 0 10.080581 33.789659c-64.568965 39.933233-171.892088 48.237297-183.457366 28.608577z m79.963739 14.754818c36.190772-5.590653 77.373198-18.215698 107.707095-38.346143a36.001345 36.001345 0 0 0 5.570174 4.679356c-28.751927 59.802576-97.150387 188.536054-159.978673 205.809737 2.047858-24.169845-15.502286-79.963739-33.277694-112.437648 13.551701-1.602449 45.708192-28.050536 79.979098-59.705302z m352.067761 205.983805l-3.071787-35.996225a13.024377 13.024377 0 0 1-0.097273-2.047858 176.382017 176.382017 0 0 1 9.215361-44.776417 300.978822 300.978822 0 0 1 21.118537-51.385879l17.811245-32.637739-36.047422-4.295382a137.160415 137.160415 0 0 1-23.135676-15.553482 106.662688 106.662688 0 0 0 11.519202-2.012021c9.599335-2.810685 20.304513-5.472901 29.422601-19.224267a61.712203 61.712203 0 0 0 6.865444-23.422377l4.059878-44.59723v-15.358935l-4.495048-31.4551a334.282114 334.282114 0 0 0-8.401338-53.280148 49.660559 49.660559 0 0 0-29.612028-31.864672 102.392904 102.392904 0 0 0-40.322325-7.167503 203.383026 203.383026 0 0 0-38.663561 4.495048V460.839027h358.375165a51.196452 51.196452 0 0 1 51.196452 51.196452v435.169843a76.794678 76.794678 0 0 1-76.794678 76.794678h-332.776939v-108.889734a134.134704 134.134704 0 0 0 48.984765 28.501065z" p-id="4713"></path></svg>